<svg width="256" height="256" version="1.1" xmlns="http://www.w3.org/2000/svg" desc="Created with imagetracer.js version 1.2.6" ><path fill="rgb(0,0,0)" stroke="rgb(0,0,0)" stroke-width="1" opacity="0" d="M 0 0 L 128 0.5 L 127 2.5 L 131 5 L 132 0 L 256 0 L 256 256 L 0 256 L 0 0 Z M 129 35 L 125 37 L 120 44 Q 119 49 122 52 L 129 56 L 136 56 L 136 53 L 130 51 L 127 48 L 128 42 Q 130 38 135 38 L 135 35 L 129 35 Z M 86 64 L 80 66 L 4 147 L 2 152 L 3 157 L 11 162 Q 16 163 19 160 L 87 87 L 95 98 L 89 107 L 85 123 L 85 134 L 87 145 L 94 158 L 76 181 L 77 189 L 84 192 L 91 191 Q 101 182 107 170 L 120 174 L 129 174 L 130 175 Q 133 173 140 174 L 152 170 L 161 184 L 172 192 Q 178 193 181 190 L 183 187 L 183 181 L 165 158 L 171 148 L 174 135 Q 176 109 164 98 L 173 87 L 227 149 L 241 161 L 249 160 L 254 153 L 253 148 L 187 74 L 177 64 Q 169 63 166 66 L 150 86 L 138 82 L 122 82 L 110 86 L 98 71 Q 95 64 86 64 Z " /><path fill="rgb(0,0,0)" stroke="rgb(0,0,0)" stroke-width="1" opacity="0" d="M 122.5 95 Q 134.3 93.8 141 96 L 139 100.5 L 129.5 112 L 118 97.5 L 122.5 95 Z " /><path fill="rgb(0,0,0)" stroke="rgb(0,0,0)" stroke-width="1" opacity="0" d="M 104.5 110 L 118 126.5 L 104.5 144 Q 101.9 144.8 103 141.5 Q 99.3 134.3 101 121.5 L 104.5 110 Z " /><path fill="rgb(0,0,0)" stroke="rgb(0,0,0)" stroke-width="1" opacity="0" d="M 154.5 110 Q 159.9 119.1 158 135.5 L 156 144 Q 153.3 145.1 154 142.5 L 143 129.5 L 142 125.5 L 154.5 110 Z " /><path fill="rgb(0,0,0)" stroke="rgb(0,0,0)" stroke-width="1" opacity="0" d="M 129.5 142 L 142 158.5 L 137.5 161 L 127.5 162 Q 126.2 159.8 121.5 161 L 117 158.5 L 129.5 142 Z " /><path fill="rgb(242,204,0)" stroke="rgb(242,204,0)" stroke-width="1" opacity="0.4823529411764706" d="M 128.5 0 Q 133.3 -1.7 132 2.5 L 131 5 L 127 2.5 L 128.5 0 Z " /><path fill="rgb(242,204,0)" stroke="rgb(242,204,0)" stroke-width="1" opacity="0.4823529411764706" d="M 128.5 35 L 135 35 L 135 38 Q 130.1 37.9 128 41.5 L 127 47.5 L 129.5 51 L 136 53 L 136 56 L 128.5 56 L 122 51.5 Q 119.3 49.2 120 43.5 L 124.5 37 L 128.5 35 Z M 131 36 L 126 38 L 122 43 L 123 51 L 131 55 L 133 55 L 129 52 L 125 46 L 127 41 L 132 37 L 131 36 Z " /><path fill="rgb(242,204,0)" stroke="rgb(242,204,0)" stroke-width="1" opacity="0.4823529411764706" d="M 85.5 64 Q 94.6 64.4 98 70.5 L 109.5 86 L 121.5 82 L 137.5 82 L 149.5 86 L 165.5 66 Q 169.1 63.1 176.5 64 L 187 73.5 L 253 147.5 L 254 152.5 L 248.5 160 L 240.5 161 L 227 148.5 L 172.5 87 L 164 97.5 Q 175.7 109.3 174 134.5 L 171 147.5 L 165 157.5 L 183 180.5 L 183 186.5 L 180.5 190 Q 177.6 192.6 171.5 192 L 161 183.5 L 152 170 L 139.5 174 Q 132.7 172.7 129.5 175 L 128.5 174 L 119.5 174 L 107 170 Q 100.8 182.2 90.5 191 L 83.5 192 L 77 188.5 L 76 180.5 L 94 157.5 L 87 144.5 L 85 133.5 L 85 122.5 L 89 106.5 L 95 97.5 L 86.5 87 L 18.5 160 Q 16.2 162.7 10.5 162 L 3 156.5 L 2 151.5 L 4 146.5 L 79.5 66 L 85.5 64 Z M 171 65 L 165 68 L 150 87 L 138 83 L 122 83 L 110 87 L 92 66 Q 84 65 81 67 L 4 150 L 5 157 L 10 160 L 18 159 L 87 85 L 96 97 L 90 107 L 86 124 Q 85 146 95 158 L 77 181 L 77 187 L 84 191 L 92 189 L 108 169 L 120 173 Q 140 176 152 169 L 164 186 L 173 191 Q 180 191 182 187 L 181 180 L 164 158 L 171 145 L 173 134 L 172 116 L 167 103 L 163 98 L 171 88 Q 170 85 174 86 L 230 150 L 240 159 L 243 160 L 248 159 L 252 154 L 252 150 L 247 143 L 186 75 L 178 66 L 171 65 Z " /><path fill="rgb(242,204,0)" stroke="rgb(242,204,0)" stroke-width="1" opacity="0.4823529411764706" d="M 121.5 94 L 137.5 94 L 142 96.5 L 129.5 114 L 117 96.5 L 121.5 94 Z M 123 95 L 118 98 L 130 112 L 139 101 L 141 96 Q 134 94 123 95 Z " /><path fill="rgb(242,204,0)" stroke="rgb(242,204,0)" stroke-width="1" opacity="0.4823529411764706" d="M 104.5 108 L 119 126.5 L 105 146 Q 102.3 147.1 103 144.5 Q 98.1 135.9 100 120.5 L 104.5 108 Z M 105 110 L 101 122 Q 99 134 103 142 Q 102 145 105 144 L 118 127 L 105 110 Z " /><path fill="rgb(242,204,0)" stroke="rgb(242,204,0)" stroke-width="1" opacity="0.4823529411764706" d="M 154.5 108 L 159 120.5 L 159 136.5 L 155.5 146 Q 153.3 146.8 154 144.5 L 140 126.5 L 154.5 108 Z M 155 110 L 142 126 L 143 130 L 154 143 Q 153 145 156 144 L 158 136 Q 160 119 155 110 Z " /><path fill="rgb(242,204,0)" stroke="rgb(242,204,0)" stroke-width="1" opacity="0.4823529411764706" d="M 129.5 140 L 144 160 L 133.5 163 L 125.5 163 L 115 160 L 129.5 140 Z M 130 142 L 117 159 L 122 161 Q 126 160 128 162 L 138 161 L 142 159 L 130 142 Z " /><path fill="rgb(254,212,0)" stroke="rgb(254,212,0)" stroke-width="1" opacity="0.996078431372549" d="M 170.5 65 L 176 65.5 L 170.5 66 L 170.5 65 Z " /><path fill="rgb(254,212,0)" stroke="rgb(254,212,0)" stroke-width="1" opacity="0.996078431372549" d="M 90.5 66 L 93 67.5 L 91.5 67 L 90.5 66 Z " /><path fill="rgb(254,212,0)" stroke="rgb(254,212,0)" stroke-width="1" opacity="0.996078431372549" d="M 167.5 66 L 169 66.5 L 166.5 68 L 167.5 66 Z " /><path fill="rgb(254,212,0)" stroke="rgb(254,212,0)" stroke-width="1" opacity="0.996078431372549" d="M 80.5 67 L 78.5 70 L 80.5 67 Z " /><path fill="rgb(254,212,0)" stroke="rgb(254,212,0)" stroke-width="1" opacity="0.996078431372549" d="M 164.5 68 L 163.5 70 L 164.5 68 Z " /><path fill="rgb(254,212,0)" stroke="rgb(254,212,0)" stroke-width="1" opacity="0.996078431372549" d="M 180.5 69 L 181.5 71 L 180.5 69 Z " /><path fill="rgb(254,212,0)" stroke="rgb(254,212,0)" stroke-width="1" opacity="0.996078431372549" d="M 96.5 71 L 98.5 74 L 96.5 71 Z " /><path fill="rgb(254,212,0)" stroke="rgb(254,212,0)" stroke-width="1" opacity="0.996078431372549" d="M 162.5 71 L 160.5 74 L 162.5 71 Z " /><path fill="rgb(254,212,0)" stroke="rgb(254,212,0)" stroke-width="1" opacity="0.996078431372549" d="M 99.5 75 L 101.5 78 L 99.5 75 Z " /><path fill="rgb(254,212,0)" stroke="rgb(254,212,0)" stroke-width="1" opacity="0.996078431372549" d="M 159.5 75 L 157.5 78 L 159.5 75 Z " /><path fill="rgb(254,212,0)" stroke="rgb(254,212,0)" stroke-width="1" opacity="0.996078431372549" d="M 102.5 79 L 109.5 87 L 111.5 86 L 111.5 87 Q 103 89.5 98 95.5 L 94.5 100 L 96 97.5 L 92 92.5 L 94.5 94 L 100.5 88 L 106 84.5 L 102.5 79 Z " /><path fill="rgb(254,212,0)" stroke="rgb(254,212,0)" stroke-width="1" opacity="0.996078431372549" d="M 156.5 79 L 154 82.5 L 153 84.5 L 164.5 94 L 167 92.5 L 163 97.5 L 164.5 100 L 158.5 93 L 147 86.5 L 148.5 86 L 149.5 87 L 153 83.5 L 156.5 79 Z " /><path fill="rgb(254,212,0)" stroke="rgb(254,212,0)" stroke-width="1" opacity="0.996078431372549" d="M 121.5 83 L 138 83.5 L 121.5 84 L 121.5 83 Z " /><path fill="rgb(254,212,0)" stroke="rgb(254,212,0)" stroke-width="1" opacity="0.996078431372549" d="M 116.5 84 L 119 84.5 L 116.5 85 L 116.5 84 Z " /><path fill="rgb(254,212,0)" stroke="rgb(254,212,0)" stroke-width="1" opacity="0.996078431372549" d="M 140.5 84 L 143 84.5 L 140.5 85 L 140.5 84 Z " /><path fill="rgb(254,212,0)" stroke="rgb(254,212,0)" stroke-width="1" opacity="0.996078431372549" d="M 85.5 85 L 84.5 87 L 85.5 85 Z " /><path fill="rgb(254,212,0)" stroke="rgb(254,212,0)" stroke-width="1" opacity="0.996078431372549" d="M 87.5 85 L 88.5 87 L 87.5 85 Z " /><path fill="rgb(254,212,0)" stroke="rgb(254,212,0)" stroke-width="1" opacity="0.996078431372549" d="M 171.5 85 L 174 85.5 L 171 86 L 167.5 91 L 170 87.5 L 171.5 85 Z " /><path fill="rgb(254,212,0)" stroke="rgb(254,212,0)" stroke-width="1" opacity="0.996078431372549" d="M 89.5 88 L 91.5 91 L 89.5 88 Z " /><path fill="rgb(254,212,0)" stroke="rgb(254,212,0)" stroke-width="1" opacity="0.996078431372549" d="M 123.5 93 L 137 93.5 L 123.5 94 L 123.5 93 Z " /><path fill="rgb(254,212,0)" stroke="rgb(254,212,0)" stroke-width="1" opacity="0.996078431372549" d="M 116.5 95 L 118 95.5 L 117 97.5 L 125 107.5 L 121 104.5 L 117.5 100 Q 111.4 101.4 109 106.5 L 107 110.5 L 109.5 114 L 104.5 108 L 103 108.5 L 111.5 98 L 116.5 95 Z " /><path fill="rgb(254,212,0)" stroke="rgb(254,212,0)" stroke-width="1" opacity="0.996078431372549" d="M 141.5 95 Q 149.6 97.9 154 104.5 L 156 108.5 L 153 109.5 L 146.5 118 L 149 114.5 L 152 109.5 L 143.5 100 Q 139 99.5 138.5 103 L 141 99.5 L 142 96.5 L 141.5 95 Z " /><path fill="rgb(254,212,0)" stroke="rgb(254,212,0)" stroke-width="1" opacity="0.996078431372549" d="M 205.5 97 L 206.5 99 L 205.5 97 Z " /><path fill="rgb(254,212,0)" stroke="rgb(254,212,0)" stroke-width="1" opacity="0.996078431372549" d="M 93.5 101 L 93 102.5 L 90.5 108 L 90 106.5 L 93.5 101 Z " /><path fill="rgb(254,212,0)" stroke="rgb(254,212,0)" stroke-width="1" opacity="0.996078431372549" d="M 165.5 101 L 169 107.5 L 168 107.5 L 165.5 101 Z " /><path fill="rgb(254,212,0)" stroke="rgb(254,212,0)" stroke-width="1" opacity="0.996078431372549" d="M 137.5 104 L 135.5 107 L 137.5 104 Z " /><path fill="rgb(254,212,0)" stroke="rgb(254,212,0)" stroke-width="1" opacity="0.996078431372549" d="M 134.5 108 L 132.5 111 L 134.5 108 Z " /><path fill="rgb(254,212,0)" stroke="rgb(254,212,0)" stroke-width="1" opacity="0.996078431372549" d="M 125.5 109 L 127.5 112 L 125.5 109 Z " /><path fill="rgb(254,212,0)" stroke="rgb(254,212,0)" stroke-width="1" opacity="0.996078431372549" d="M 62.5 110 L 60.5 113 L 62.5 110 Z " /><path fill="rgb(254,212,0)" stroke="rgb(254,212,0)" stroke-width="1" opacity="0.996078431372549" d="M 131.5 112 L 130.5 114 L 131.5 112 Z " /><path fill="rgb(254,212,0)" stroke="rgb(254,212,0)" stroke-width="1" opacity="0.996078431372549" d="M 110.5 115 L 112.5 118 L 110.5 115 Z " /><path fill="rgb(254,212,0)" stroke="rgb(254,212,0)" stroke-width="1" opacity="0.996078431372549" d="M 171.5 115 L 172 118.5 L 171 118.5 L 171.5 115 Z " /><path fill="rgb(254,212,0)" stroke="rgb(254,212,0)" stroke-width="1" opacity="0.996078431372549" d="M 200.5 115 L 201.5 117 L 200.5 115 Z " /><path fill="rgb(254,212,0)" stroke="rgb(254,212,0)" stroke-width="1" opacity="0.996078431372549" d="M 87.5 116 L 88 119.5 L 87 119.5 L 87.5 116 Z " /><path fill="rgb(254,212,0)" stroke="rgb(254,212,0)" stroke-width="1" opacity="0.996078431372549" d="M 158.5 116 L 159 119.5 L 158 119.5 L 158.5 116 Z " /><path fill="rgb(254,212,0)" stroke="rgb(254,212,0)" stroke-width="1" opacity="0.996078431372549" d="M 100.5 117 L 101 119.5 L 100 119.5 L 100.5 117 Z " /><path fill="rgb(254,212,0)" stroke="rgb(254,212,0)" stroke-width="1" opacity="0.996078431372549" d="M 113.5 119 L 116.5 123 L 113.5 119 Z " /><path fill="rgb(254,212,0)" stroke="rgb(254,212,0)" stroke-width="1" opacity="0.996078431372549" d="M 145.5 119 L 143.5 122 L 145.5 119 Z " /><path fill="rgb(254,212,0)" stroke="rgb(254,212,0)" stroke-width="1" opacity="0.996078431372549" d="M 172.5 122 L 173 133.5 L 172 133.5 L 172.5 122 Z " /><path fill="rgb(254,212,0)" stroke="rgb(254,212,0)" stroke-width="1" opacity="0.996078431372549" d="M 86.5 123 L 87 132.5 L 86 132.5 L 86.5 123 Z " /><path fill="rgb(254,212,0)" stroke="rgb(254,212,0)" stroke-width="1" opacity="0.996078431372549" d="M 142.5 123 L 140.5 126 L 142.5 123 Z " /><path fill="rgb(254,212,0)" stroke="rgb(254,212,0)" stroke-width="1" opacity="0.996078431372549" d="M 159.5 123 L 160 133.5 L 159 133.5 L 159.5 123 Z " /><path fill="rgb(254,212,0)" stroke="rgb(254,212,0)" stroke-width="1" opacity="0.996078431372549" d="M 99.5 124 L 100 132.5 L 99 132.5 L 99.5 124 Z " /><path fill="rgb(254,212,0)" stroke="rgb(254,212,0)" stroke-width="1" opacity="0.996078431372549" d="M 117.5 124 L 118.5 126 L 117.5 124 Z " /><path fill="rgb(254,212,0)" stroke="rgb(254,212,0)" stroke-width="1" opacity="0.996078431372549" d="M 118.5 127 L 119 128.5 L 115 131.5 L 118.5 127 Z " /><path fill="rgb(254,212,0)" stroke="rgb(254,212,0)" stroke-width="1" opacity="0.996078431372549" d="M 140.5 127 L 144 131.5 L 140 128.5 L 140.5 127 Z " /><path fill="rgb(254,212,0)" stroke="rgb(254,212,0)" stroke-width="1" opacity="0.996078431372549" d="M 114.5 133 L 112.5 136 L 114.5 133 Z " /><path fill="rgb(254,212,0)" stroke="rgb(254,212,0)" stroke-width="1" opacity="0.996078431372549" d="M 144.5 133 L 147.5 137 L 144.5 133 Z " /><path fill="rgb(254,212,0)" stroke="rgb(254,212,0)" stroke-width="1" opacity="0.996078431372549" d="M 100.5 136 L 101 139.5 L 100 139.5 L 100.5 136 Z " /><path fill="rgb(254,212,0)" stroke="rgb(254,212,0)" stroke-width="1" opacity="0.996078431372549" d="M 87.5 137 L 88 139.5 L 87 139.5 L 87.5 137 Z " /><path fill="rgb(254,212,0)" stroke="rgb(254,212,0)" stroke-width="1" opacity="0.996078431372549" d="M 111.5 137 L 108.5 141 L 111.5 137 Z " /><path fill="rgb(254,212,0)" stroke="rgb(254,212,0)" stroke-width="1" opacity="0.996078431372549" d="M 158.5 137 L 159 139.5 L 158 139.5 L 158.5 137 Z " /><path fill="rgb(254,212,0)" stroke="rgb(254,212,0)" stroke-width="1" opacity="0.996078431372549" d="M 171.5 137 L 172 140.5 L 171 140.5 L 171.5 137 Z " /><path fill="rgb(254,212,0)" stroke="rgb(254,212,0)" stroke-width="1" opacity="0.996078431372549" d="M 148.5 138 L 150.5 141 L 148.5 138 Z " /><path fill="rgb(254,212,0)" stroke="rgb(254,212,0)" stroke-width="1" opacity="0.996078431372549" d="M 128.5 140 L 128 141.5 L 124.5 146 L 127 142.5 L 128.5 140 Z " /><path fill="rgb(254,212,0)" stroke="rgb(254,212,0)" stroke-width="1" opacity="0.996078431372549" d="M 157.5 141 L 158 143.5 L 157 143.5 L 157.5 141 Z " /><path fill="rgb(254,212,0)" stroke="rgb(254,212,0)" stroke-width="1" opacity="0.996078431372549" d="M 107.5 142 L 106 144.5 L 107 145.5 L 112.5 154 L 116.5 156 L 118 155.5 L 114.5 160 L 105 151.5 L 102 144.5 L 103 144.5 Q 102.3 147.1 105 146 L 107.5 142 Z " /><path fill="rgb(254,212,0)" stroke="rgb(254,212,0)" stroke-width="1" opacity="0.996078431372549" d="M 131.5 142 L 133.5 145 L 131.5 142 Z " /><path fill="rgb(254,212,0)" stroke="rgb(254,212,0)" stroke-width="1" opacity="0.996078431372549" d="M 151.5 142 L 154 146 L 156.5 145 L 156 146.5 Q 153.6 155.1 146.5 159 L 142.5 161 L 142.5 160 Q 144.8 160.8 144 158.5 L 141.5 155 L 143.5 156 L 149 151.5 L 153 144.5 L 151.5 142 Z " /><path fill="rgb(254,212,0)" stroke="rgb(254,212,0)" stroke-width="1" opacity="0.996078431372549" d="M 170.5 142 L 171 144.5 L 170 144.5 L 170.5 142 Z " /><path fill="rgb(254,212,0)" stroke="rgb(254,212,0)" stroke-width="1" opacity="0.996078431372549" d="M 134.5 146 L 137.5 150 L 134.5 146 Z " /><path fill="rgb(254,212,0)" stroke="rgb(254,212,0)" stroke-width="1" opacity="0.996078431372549" d="M 123.5 147 L 121.5 150 L 123.5 147 Z " /><path fill="rgb(254,212,0)" stroke="rgb(254,212,0)" stroke-width="1" opacity="0.996078431372549" d="M 90.5 148 L 94 154.5 L 92 153.5 L 90.5 148 Z " /><path fill="rgb(254,212,0)" stroke="rgb(254,212,0)" stroke-width="1" opacity="0.996078431372549" d="M 120.5 151 L 118.5 154 L 120.5 151 Z " /><path fill="rgb(254,212,0)" stroke="rgb(254,212,0)" stroke-width="1" opacity="0.996078431372549" d="M 138.5 151 L 140.5 154 L 138.5 151 Z " /><path fill="rgb(254,212,0)" stroke="rgb(254,212,0)" stroke-width="1" opacity="0.996078431372549" d="M 166.5 153 L 165.5 155 L 166.5 153 Z " /><path fill="rgb(254,212,0)" stroke="rgb(254,212,0)" stroke-width="1" opacity="0.996078431372549" d="M 94.5 156 L 101.5 164 L 109 168.5 L 105.5 171 Q 97.7 167.8 93.5 161 L 87.5 168 L 90 164.5 L 95 157.5 L 94.5 156 Z " /><path fill="rgb(254,212,0)" stroke="rgb(254,212,0)" stroke-width="1" opacity="0.996078431372549" d="M 164.5 156 L 165 158.5 L 168 162.5 L 165.5 161 L 164 162.5 Q 164.8 164.8 162.5 164 L 153.5 171 L 150 168.5 Q 158.2 165.2 163 158.5 L 164.5 156 Z " /><path fill="rgb(254,212,0)" stroke="rgb(254,212,0)" stroke-width="1" opacity="0.996078431372549" d="M 121.5 162 L 125 162.5 L 121.5 163 L 121.5 162 Z " /><path fill="rgb(254,212,0)" stroke="rgb(254,212,0)" stroke-width="1" opacity="0.996078431372549" d="M 134.5 162 L 138 162.5 L 134.5 163 L 134.5 162 Z " /><path fill="rgb(254,212,0)" stroke="rgb(254,212,0)" stroke-width="1" opacity="0.996078431372549" d="M 168.5 164 L 171.5 168 L 168.5 164 Z " /><path fill="rgb(254,212,0)" stroke="rgb(254,212,0)" stroke-width="1" opacity="0.996078431372549" d="M 86.5 169 L 83.5 173 L 86.5 169 Z " /><path fill="rgb(254,212,0)" stroke="rgb(254,212,0)" stroke-width="1" opacity="0.996078431372549" d="M 172.5 169 L 174.5 172 L 172.5 169 Z " /><path fill="rgb(254,212,0)" stroke="rgb(254,212,0)" stroke-width="1" opacity="0.996078431372549" d="M 115.5 171 L 118 171.5 L 115.5 172 L 115.5 171 Z " /><path fill="rgb(254,212,0)" stroke="rgb(254,212,0)" stroke-width="1" opacity="0.996078431372549" d="M 141.5 171 L 144 171.5 L 141.5 172 L 141.5 171 Z " /><path fill="rgb(254,212,0)" stroke="rgb(254,212,0)" stroke-width="1" opacity="0.996078431372549" d="M 104.5 172 L 102.5 175 L 104.5 172 Z " /><path fill="rgb(254,212,0)" stroke="rgb(254,212,0)" stroke-width="1" opacity="0.996078431372549" d="M 119.5 172 L 124 172.5 L 119.5 173 L 119.5 172 Z " /><path fill="rgb(254,212,0)" stroke="rgb(254,212,0)" stroke-width="1" opacity="0.996078431372549" d="M 135.5 172 L 140 172.5 L 135.5 173 L 135.5 172 Z " /><path fill="rgb(254,212,0)" stroke="rgb(254,212,0)" stroke-width="1" opacity="0.996078431372549" d="M 154.5 172 L 156.5 175 L 154.5 172 Z " /><path fill="rgb(254,212,0)" stroke="rgb(254,212,0)" stroke-width="1" opacity="0.996078431372549" d="M 175.5 173 L 178.5 177 L 175.5 173 Z " /><path fill="rgb(254,212,0)" stroke="rgb(254,212,0)" stroke-width="1" opacity="0.996078431372549" d="M 82.5 174 L 80.5 177 L 82.5 174 Z " /><path fill="rgb(254,212,0)" stroke="rgb(254,212,0)" stroke-width="1" opacity="0.996078431372549" d="M 101.5 176 L 99.5 179 L 101.5 176 Z " /><path fill="rgb(254,212,0)" stroke="rgb(254,212,0)" stroke-width="1" opacity="0.996078431372549" d="M 157.5 176 L 159.5 179 L 157.5 176 Z " /><path fill="rgb(254,212,0)" stroke="rgb(254,212,0)" stroke-width="1" opacity="0.996078431372549" d="M 79.5 178 L 78 180.5 L 77.5 182 L 77 180.5 L 79.5 178 Z " /><path fill="rgb(254,212,0)" stroke="rgb(254,212,0)" stroke-width="1" opacity="0.996078431372549" d="M 179.5 178 L 180.5 180 L 179.5 178 Z " /><path fill="rgb(254,212,0)" stroke="rgb(254,212,0)" stroke-width="1" opacity="0.996078431372549" d="M 98.5 180 L 96.5 183 L 98.5 180 Z " /><path fill="rgb(254,212,0)" stroke="rgb(254,212,0)" stroke-width="1" opacity="0.996078431372549" d="M 160.5 180 L 163.5 184 L 160.5 180 Z " /><path fill="rgb(254,212,0)" stroke="rgb(254,212,0)" stroke-width="1" opacity="0.996078431372549" d="M 95.5 184 L 91.5 189 L 95.5 184 Z " /><path fill="rgb(254,212,0)" stroke="rgb(254,212,0)" stroke-width="1" opacity="0.996078431372549" d="M 77.5 185 L 80.5 189 L 82 189.5 L 80.5 190 L 77 186.5 L 77.5 185 Z " /><path fill="rgb(254,212,0)" stroke="rgb(254,212,0)" stroke-width="1" opacity="0.996078431372549" d="M 164.5 185 L 166.5 188 L 164.5 185 Z " /><path fill="rgb(254,212,0)" stroke="rgb(254,212,0)" stroke-width="1" opacity="0.996078431372549" d="M 181.5 185 L 182 186.5 L 177.5 190 L 177.5 189 L 181 186.5 L 181.5 185 Z " /><path fill="rgb(254,212,0)" stroke="rgb(254,212,0)" stroke-width="1" opacity="0.996078431372549" d="M 168.5 188 L 171 189.5 L 169.5 190 L 168.5 188 Z " /><path fill="rgb(254,212,0)" stroke="rgb(254,212,0)" stroke-width="1" opacity="0.996078431372549" d="M 83.5 190 L 87 190.5 L 83.5 191 L 83.5 190 Z " /><path fill="rgb(254,212,0)" stroke="rgb(254,212,0)" stroke-width="1" opacity="0.996078431372549" d="M 172.5 190 L 176 190.5 L 172.5 191 L 172.5 190 Z " /><path fill="rgb(255,213,0)" stroke="rgb(255,213,0)" stroke-width="1" opacity="1" d="M 130.5 36 L 131 38 L 127 40.5 L 125 45.5 L 126 49.5 L 128.5 52 L 133 54.5 L 130.5 55 L 123 50.5 L 122 42.5 L 125.5 38 L 130.5 36 Z " /><path fill="rgb(255,213,0)" stroke="rgb(255,213,0)" stroke-width="1" opacity="1" d="M 83.5 66 Q 93.2 64.8 96 70.5 L 106 84.5 L 94.5 94 L 87.5 85 L 84 86.5 L 82 89.5 L 77.5 95 Q 75.3 94.3 76 96.5 L 69 102 L 63.5 110 L 60 112.5 L 56.5 117 Q 54.3 116.3 55 118.5 L 44.5 130 Q 41.9 129.3 43 132 L 41 132 L 41 133.5 L 38 138 Q 35.3 136.9 36 139.5 L 23.5 153 Q 21.3 152.3 22 154.5 L 19 156 L 17.5 159 L 9.5 160 L 5 156.5 L 4 154.5 L 4 152.5 Q 5.6 143.6 12.5 140 Q 14.8 140.8 14 138.5 L 20.5 131 Q 22.8 131.8 22 129.5 L 34.5 116 Q 36.8 116.8 36 114.5 L 42 110 Q 45.9 100.9 54.5 95 Q 56.8 95.8 56 93.5 L 68.5 80 Q 70.8 80.8 70 78.5 L 77.5 70 L 83.5 66 Z " /><path fill="rgb(255,213,0)" stroke="rgb(255,213,0)" stroke-width="1" opacity="1" d="M 169.5 66 Q 177.5 64.5 180 68.5 L 181.5 71 L 186 74.5 L 206.5 99 L 212 103.5 L 214 108 L 216 108 Q 214.9 110.7 217.5 110 L 227 122 L 230 123.5 L 241 138 L 247 142.5 Q 251.2 145.3 252 151.5 L 251 154.5 L 247.5 159 L 242.5 160 L 237 156.5 Q 237.8 154.3 235.5 155 L 234 152 L 230 149.5 L 226 143 L 221 139.5 L 216 132 L 212 129.5 L 200.5 115 L 198 113.5 Q 198.8 111.3 196.5 112 L 193 106 L 191 106 Q 192.1 103.3 189.5 104 L 182 94 L 180 94 Q 181.1 91.3 178.5 92 L 174 85 L 170 86.5 L 164.5 94 L 153 84.5 L 165.5 68 L 169.5 66 Z " /><path fill="rgb(255,213,0)" stroke="rgb(255,213,0)" stroke-width="1" opacity="1" d="M 119.5 84 L 139.5 84 L 143.5 85 Q 155 88.5 162 96.5 L 170 110.5 L 172 119.5 L 172 136.5 L 167 152.5 L 156.5 165 Q 145.3 173.8 124.5 173 L 114.5 171 L 105.5 167 L 96 158.5 L 88 141.5 L 87 136.5 L 87 120.5 L 90 108.5 Q 93.5 99 100.5 93 Q 108 86.5 119.5 84 Z M 124 93 L 112 98 Q 105 103 102 111 L 99 125 L 100 140 L 105 152 Q 111 160 122 163 Q 138 165 147 159 L 154 152 L 158 144 L 160 134 L 159 117 L 154 105 Q 146 91 124 93 Z " /><path fill="rgb(255,213,0)" stroke="rgb(255,213,0)" stroke-width="1" opacity="1" d="M 116.5 100 L 121 103.5 L 128 114 L 132 112.5 L 141.5 100 L 143.5 100 L 151 107.5 L 152 110.5 L 140 125.5 L 140 128.5 L 153 144.5 L 146.5 154 L 142.5 156 L 131 140 L 127 141.5 L 116.5 156 L 111 152.5 L 106 144.5 L 119 128.5 L 119 125.5 L 107 109.5 L 114.5 101 L 116.5 100 Z " /><path fill="rgb(255,213,0)" stroke="rgb(255,213,0)" stroke-width="1" opacity="1" d="M 93.5 161 L 101.5 169 L 105 170 Q 99.6 181 90.5 189 L 82.5 190 L 78 186.5 L 77 182.5 L 93.5 161 Z " /><path fill="rgb(255,213,0)" stroke="rgb(255,213,0)" stroke-width="1" opacity="1" d="M 165.5 161 L 179 177.5 L 182 184.5 L 178.5 189 L 171.5 190 L 164 184.5 L 154 171.5 L 164 164 L 165.5 161 Z " /></svg>