<?xml version="1.0" standalone="no"?>
<!DOCTYPE svg PUBLIC "-//W3C//DTD SVG 20010904//EN"
 "http://www.w3.org/TR/2001/REC-SVG-20010904/DTD/svg10.dtd">
<svg version="1.0" xmlns="http://www.w3.org/2000/svg"
 width="2000.000000pt" height="2000.000000pt" viewBox="0 0 2000.000000 2000.000000"
 preserveAspectRatio="xMidYMid meet">

<g transform="translate(0.000000,2000.000000) scale(0.100000,-0.100000)"
fill="#000000" stroke="none">
<path d="M10218 18414 c-32 -7 -80 -25 -108 -39 -45 -23 -56 -25 -86 -15 -47
16 -98 -2 -127 -44 -12 -18 -58 -62 -102 -97 -171 -135 -294 -280 -329 -387
-8 -26 -20 -85 -25 -132 -37 -318 -43 -386 -38 -438 5 -66 26 -113 68 -157 22
-24 29 -42 33 -88 3 -34 13 -71 25 -91 19 -31 73 -66 100 -66 26 0 4 -176 -30
-242 -10 -20 -37 -51 -59 -69 -53 -43 -55 -81 -6 -131 l35 -36 -47 -7 c-63 -9
-121 -34 -132 -56 -6 -10 -10 -47 -10 -82 0 -60 -2 -65 -23 -69 -20 -4 -28 4
-51 47 -65 124 -196 197 -450 250 -65 14 -85 23 -115 52 -20 19 -72 52 -116
72 -61 29 -106 61 -193 139 -61 56 -133 114 -160 129 -45 27 -53 28 -227 34
-174 6 -184 8 -309 47 -297 94 -400 76 -585 -102 -252 -244 -458 -621 -527
-965 -32 -160 -8 -224 136 -375 53 -56 106 -114 117 -129 l22 -28 -21 -21
c-18 -18 -20 -29 -15 -94 5 -68 3 -78 -24 -129 -16 -31 -29 -70 -29 -90 0 -41
-8 -60 -57 -123 -31 -41 -34 -51 -32 -100 3 -55 2 -56 -46 -98 -71 -63 -150
-102 -236 -115 -134 -21 -151 -28 -200 -79 -77 -78 -139 -275 -120 -375 11
-60 26 -81 123 -182 49 -50 95 -107 103 -126 8 -19 24 -91 35 -160 l22 -125
-37 -76 c-28 -56 -39 -93 -43 -143 l-5 -68 -14 40 c-8 22 -20 81 -29 130 -20
121 -39 170 -77 197 -64 46 -214 18 -267 -49 -31 -39 -25 -91 19 -190 67 -150
100 -277 126 -489 l6 -51 -43 -16 c-24 -9 -57 -26 -75 -37 -30 -18 -32 -21
-22 -52 6 -18 12 -39 15 -46 2 -9 16 -7 56 8 29 11 55 20 57 20 2 0 1 -186 -2
-412 -4 -285 -10 -455 -21 -548 -48 -403 -58 -533 -59 -740 -2 -383 47 -563
185 -684 l50 -44 2 -83 c3 -128 45 -207 130 -251 61 -31 167 -23 234 19 44 27
52 29 56 15 3 -9 21 -91 41 -182 20 -91 38 -172 40 -181 3 -10 -21 -50 -60
-101 -47 -62 -65 -94 -65 -116 0 -27 25 -66 122 -189 6 -7 -17 -3 -51 10 -72
26 -81 20 -81 -51 l0 -43 105 -51 105 -51 0 -42 c0 -23 3 -55 6 -71 5 -26 0
-32 -40 -57 -25 -16 -48 -33 -51 -38 -6 -9 29 -84 45 -94 5 -3 31 3 56 14 26
12 48 21 50 21 10 0 53 -101 62 -145 6 -30 8 -107 5 -190 l-6 -140 53 -155
c40 -118 54 -179 62 -255 6 -61 22 -137 41 -195 23 -70 31 -115 31 -168 1 -97
12 -106 116 -98 88 7 123 27 128 73 2 17 -15 93 -37 169 -53 185 -69 272 -80
439 -9 124 -15 156 -52 270 l-43 130 -4 183 c-2 100 -2 182 1 182 2 0 37 -14
77 -30 40 -17 77 -30 81 -30 5 0 18 18 29 40 l21 41 -73 33 c-40 18 -88 38
-105 45 -29 12 -47 41 -25 41 16 0 152 141 190 198 108 158 156 307 172 535
26 353 32 418 51 512 26 131 86 308 147 438 l50 105 43 6 c24 3 84 10 133 16
48 6 90 9 92 7 3 -2 -1 -80 -8 -173 -7 -98 -12 -403 -12 -729 l-1 -560 66 -3
66 -3 6 113 c4 62 7 214 7 338 0 124 3 269 7 323 l6 97 48 0 c56 0 127 25 184
63 l40 27 18 -36 c31 -60 47 -161 47 -297 0 -95 5 -151 21 -217 24 -100 26
-88 -46 -214 -38 -66 -43 -159 -19 -387 10 -96 18 -230 18 -299 1 -160 -12
-201 -105 -318 -81 -102 -133 -202 -185 -362 -33 -100 -37 -128 -38 -216 -1
-93 1 -105 29 -159 19 -38 45 -70 72 -90 47 -34 50 -48 28 -122 -23 -77 -74
-127 -173 -168 -98 -40 -107 -47 -133 -96 -20 -40 -139 -559 -139 -609 0 -18
7 -33 19 -39 24 -13 34 -52 21 -85 -5 -15 -31 -54 -57 -89 -98 -127 -126 -227
-142 -503 -9 -157 -13 -180 -51 -298 -57 -182 -56 -205 25 -421 36 -96 65
-176 65 -179 0 -3 -11 -21 -24 -41 -14 -20 -32 -59 -42 -87 -12 -36 -36 -71
-85 -123 -76 -79 -104 -132 -94 -176 4 -15 31 -55 61 -89 65 -73 68 -98 27
-211 -25 -69 -27 -86 -28 -234 -1 -157 -1 -161 -33 -238 -58 -137 -73 -216
-73 -367 1 -74 -4 -160 -10 -191 l-11 -56 -77 -6 c-47 -4 -105 -17 -147 -32
-38 -15 -85 -33 -105 -40 -46 -18 -78 -9 -162 42 -58 36 -67 38 -142 38 -71 0
-86 -4 -140 -33 -33 -18 -105 -71 -160 -117 -171 -146 -236 -165 -435 -125
-125 25 -149 23 -305 -18 -93 -24 -112 -26 -255 -22 -85 2 -229 4 -320 4 -161
0 -167 0 -260 -32 -52 -18 -142 -58 -200 -89 -268 -143 -392 -202 -436 -209
-55 -8 -86 4 -171 69 -75 58 -117 71 -212 65 -110 -7 -229 -51 -506 -187 -132
-65 -281 -135 -332 -155 -147 -58 -446 -137 -528 -139 -83 -2 -112 11 -182 81
-86 86 -119 106 -177 106 -120 -1 -210 -58 -320 -203 -79 -104 -129 -144 -196
-156 -20 -3 -98 1 -175 10 -167 21 -539 23 -695 6 -231 -26 -526 -89 -700
-149 l-55 -19 -3 -986 -2 -987 10000 0 10000 0 0 2050 0 2051 -134 143 c-161
171 -238 243 -314 295 -129 87 -230 121 -361 121 -106 0 -196 -19 -406 -86
-329 -105 -433 -110 -607 -29 -29 14 -67 25 -84 25 -43 0 -117 -40 -204 -110
-85 -69 -120 -90 -169 -101 -75 -17 -296 23 -690 126 -345 89 -525 96 -791 31
-272 -67 -374 -48 -674 129 -228 134 -344 171 -501 161 -113 -7 -186 -26 -301
-80 -157 -74 -234 -130 -539 -395 -352 -304 -563 -389 -874 -351 -79 10 -104
16 -108 29 -25 80 -64 131 -124 162 -45 23 -110 24 -194 4 -78 -19 -119 -19
-196 1 -50 13 -73 14 -116 5 -62 -12 -87 -5 -127 37 -42 45 -117 74 -181 71
l-54 -3 -79 76 c-94 89 -161 125 -255 134 -50 5 -70 11 -74 23 -2 9 -18 48
-34 87 -47 112 -47 131 -4 209 21 36 48 79 61 95 33 38 30 52 -16 89 -47 38
-51 63 -15 111 33 45 32 83 -1 109 -15 12 -37 21 -49 21 -22 0 -23 4 -29 123
-13 270 -31 1017 -31 1262 0 295 -4 276 90 385 95 110 108 150 81 240 -16 53
-7 171 17 235 45 120 67 433 38 535 -7 25 -35 103 -63 175 -27 71 -69 204 -93
295 -52 197 -82 286 -165 487 l-62 152 32 56 c42 74 42 109 1 174 -43 66 -65
140 -91 298 -11 70 -28 150 -37 177 -18 55 -120 210 -196 299 -57 66 -186 277
-253 414 -30 60 -47 110 -51 146 -5 50 -2 63 33 134 35 70 39 86 38 148 -2 86
-20 138 -86 237 l-50 78 7 75 7 75 51 -46 c56 -51 168 -127 214 -145 15 -7 51
-17 78 -24 l50 -11 22 -195 c12 -107 38 -363 58 -569 20 -206 42 -378 47 -381
12 -8 100 -21 105 -16 7 8 -19 261 -48 460 -19 129 -33 274 -36 371 -6 155 -5
158 14 148 26 -14 93 -88 122 -135 28 -45 66 -67 120 -67 41 0 41 -1 140 -132
153 -206 165 -242 137 -406 -20 -113 -17 -138 59 -397 30 -103 59 -224 65
-268 27 -206 63 -277 142 -277 11 0 35 16 53 35 l33 34 5 -27 c3 -17 -2 -35
-14 -51 -39 -49 -12 -101 53 -101 27 0 37 -5 46 -25 6 -13 22 -27 36 -31 60
-15 127 58 209 226 l50 105 3 195 2 195 -73 181 c-120 296 -166 391 -267 549
-104 164 -139 230 -187 349 l-32 79 31 31 c38 37 80 137 80 189 0 26 -18 72
-61 155 -69 132 -90 159 -132 170 -25 6 -32 15 -41 53 -7 25 -44 104 -83 175
-86 154 -127 249 -182 415 -69 210 -101 356 -182 823 -69 398 -83 458 -129
551 -39 78 -40 83 -40 183 0 56 -7 148 -16 205 -20 132 -19 313 1 507 35 319
21 499 -59 769 -29 95 -34 125 -26 146 13 35 12 85 -3 111 -19 33 -221 218
-282 259 -31 20 -99 57 -151 82 l-94 44 0 46 c0 74 19 121 66 162 53 47 91 59
229 72 189 18 205 33 213 202 4 91 9 117 25 139 21 28 19 44 -14 89 -9 12 -5
21 21 48 31 31 32 34 27 94 -3 34 -8 70 -12 79 -5 12 7 25 48 51 119 76 116
110 -25 268 -60 68 -88 129 -88 191 l0 28 84 0 c303 0 515 144 543 370 11 81
8 95 -22 108 -48 22 -336 62 -596 84 l-151 12 -58 71 c-155 190 -338 315 -534
365 -94 24 -260 26 -348 4z m-3073 -3317 c-22 -66 -78 -173 -111 -212 l-25
-30 4 70 c5 85 31 141 96 208 53 55 62 46 36 -36z m-615 -2965 c11 -29 29
-101 40 -160 12 -59 29 -150 39 -202 12 -61 38 -142 71 -220 45 -106 55 -141
65 -230 10 -82 19 -119 44 -168 l32 -63 -16 -269 c-8 -149 -15 -282 -15 -297
0 -14 -2 -24 -4 -22 -6 5 -326 1735 -326 1755 1 17 50 -71 70 -124z m-371
-527 c16 -387 27 -523 61 -757 29 -196 40 -406 24 -466 l-7 -23 -24 23 c-90
84 -113 310 -94 933 11 372 21 579 27 573 1 -2 7 -129 13 -283z m346 -988 c63
-291 113 -533 110 -538 -11 -17 -90 -58 -126 -64 -84 -15 -172 39 -197 122
-17 58 -15 104 12 250 37 194 55 346 68 572 7 112 13 200 15 195 1 -5 54 -247
118 -537z m563 250 c102 -54 200 -77 375 -84 129 -5 147 -8 142 -22 -32 -104
-69 -365 -95 -668 -36 -421 -48 -506 -88 -623 -24 -69 -65 -151 -105 -210 -40
-59 -167 -190 -183 -190 -22 0 -42 42 -49 105 -4 33 -18 92 -31 130 -15 45
-27 112 -33 187 -8 103 -13 123 -39 170 -26 44 -39 96 -81 315 l-50 262 14
148 c7 81 16 222 20 313 3 91 8 198 11 238 l6 72 58 -52 c32 -29 90 -70 128
-91z m5343 -1056 c16 -16 29 -35 29 -42 0 -14 -93 -109 -107 -109 -23 0 -55
154 -36 173 3 4 24 7 45 7 30 0 46 -7 69 -29z m-2299 -1809 c20 -22 61 -77 91
-123 70 -106 136 -170 212 -206 81 -38 87 -54 64 -156 -21 -94 -24 -168 -8
-251 7 -42 7 -72 -1 -109 -40 -185 -10 -601 66 -901 14 -56 41 -155 61 -221
57 -192 62 -240 63 -551 l0 -281 31 -108 c35 -122 34 -141 -12 -250 -38 -90
-45 -147 -25 -204 9 -24 16 -67 16 -96 0 -65 17 -115 69 -203 l40 -67 -19 -75
c-32 -122 -41 -224 -30 -320 6 -47 13 -92 16 -101 3 -13 -9 -18 -61 -27 -136
-22 -208 -79 -343 -267 -110 -153 -166 -208 -247 -247 -63 -29 -198 -58 -211
-45 -4 3 4 30 16 59 47 106 28 241 -42 304 -55 51 -84 57 -213 50 -112 -6
-125 -4 -198 20 -58 19 -92 25 -125 21 -61 -7 -79 2 -143 65 -57 56 -104 78
-175 78 -36 1 -43 6 -88 66 -57 76 -115 126 -177 153 l-45 20 -23 102 c-16 68
-21 116 -17 145 3 26 34 98 72 172 53 103 67 138 71 188 7 75 -13 124 -64 155
-19 12 -40 31 -48 43 -14 22 -45 314 -45 429 0 57 4 70 50 147 93 158 125 285
115 455 l-6 100 33 49 c18 27 41 61 50 75 9 14 21 61 26 104 6 43 18 90 29
106 37 58 380 401 416 416 20 8 77 21 127 29 106 18 176 52 227 111 110 128
161 303 198 670 26 261 55 413 100 518 l16 38 28 -20 c15 -11 44 -38 63 -59z"/>
</g>
</svg>
